<svg width="18" height="18" viewBox="0 0 18 18" fill="none" xmlns="http://www.w3.org/2000/svg">
<path fill-rule="evenodd" clip-rule="evenodd" d="M3.82185 0H4.36502C4.6677 0 4.91147 0.225 4.91147 0.501V1.5H13.0918V0.501C13.0918 0.2235 13.3372 0 13.6382 0H14.1814C14.4841 0 14.7279 0.225 14.7279 0.501V1.5H17.182C17.3989 1.5 17.607 1.57902 17.7604 1.71967C17.9138 1.86032 18 2.05109 18 2.25V17.25C18 17.4489 17.9138 17.6397 17.7604 17.7803C17.607 17.921 17.3989 18 17.182 18H0.821305C0.713604 18.0004 0.606878 17.9813 0.507252 17.9438C0.407626 17.9063 0.31706 17.8511 0.240752 17.7814C0.164444 17.7117 0.103895 17.6289 0.0625803 17.5377C0.0212658 17.4465 -8.61589e-07 17.3487 0 17.25V2.25C-8.61589e-07 2.15125 0.0212658 2.05348 0.0625803 1.96229C0.103895 1.8711 0.164444 1.78829 0.240752 1.71861C0.31706 1.64892 0.407626 1.59374 0.507252 1.55623C0.606878 1.51871 0.713604 1.4996 0.821305 1.5H3.2754V0.501C3.2754 0.2235 3.52081 0 3.82185 0ZM1.63934 3V4.5H16.3639V3H1.63934ZM1.63934 6V16.5H16.3639V6H1.63934ZM3.2754 7.5H4.91147V9H3.2754V7.5ZM6.54754 7.5H8.1836V9H6.54754V7.5ZM9.81967 7.5H11.4557V9H9.81967V7.5ZM13.0918 7.5H14.7279V9H13.0918V7.5ZM3.2754 10.5H4.91147V12H3.2754V10.5ZM6.54754 10.5H8.1836V12H6.54754V10.5ZM9.81967 10.5H11.4557V12H9.81967V10.5ZM13.0918 10.5H14.7279V12H13.0918V10.5ZM3.2754 13.5H4.91147V15H3.2754V13.5ZM6.54754 13.5H8.1836V15H6.54754V13.5ZM9.81967 13.5H11.4557V15H9.81967V13.5Z" fill="#3B5998"/>
</svg>
