<svg width="274" height="83" viewBox="0 0 274 83" fill="none" xmlns="http://www.w3.org/2000/svg">
<mask id="mask0_72_223" style="mask-type:alpha" maskUnits="userSpaceOnUse" x="-96" y="0" width="496" height="83">
<g opacity="0.95">
<rect x="-96" y="0.00720215" width="495.83" height="82.9928" rx="24" fill="url(#paint0_linear_72_223)"/>
<rect x="-95.5" y="0.507202" width="494.83" height="81.9928" rx="23.5" stroke="url(#paint1_linear_72_223)" stroke-opacity="0.7"/>
</g>
</mask>
<g mask="url(#mask0_72_223)">
<path opacity="0.25" d="M-96 55.6761L-90.112 59.1163C-84.1896 62.6211 -72.2415 69.4046 -60.5344 67.7411C-48.7929 66.0129 -37.1202 55.6761 -25.0688 54.82C-13.3617 53.8994 -1.6546 62.6211 10.3968 63.4287C22.0695 64.2362 33.811 57.4527 45.5181 53.9479C57.4662 50.5076 69.2766 50.5076 80.9837 48.7795C92.8974 47.1159 104.742 43.5626 116.449 41.899C128.294 40.1708 140.208 40.1708 151.915 43.611C163.725 47.1159 175.673 53.8994 187.381 53.9479C199.122 53.8994 210.795 47.1159 222.846 45.3392C234.553 43.5626 246.26 47.1159 258.312 48.7795C269.984 50.5076 281.726 50.5076 293.433 53.0918C305.381 55.6761 317.192 60.8445 328.899 62.5726C340.812 64.2362 352.657 62.6211 364.364 63.4287C376.209 64.2362 388.123 67.7895 393.976 69.4531L399.83 71.1813V93.3742H393.942C388.019 93.3742 376.071 93.3742 364.364 93.3742C352.623 93.3742 340.95 93.3742 328.899 93.3742C317.192 93.3742 305.484 93.3742 293.433 93.3742C281.76 93.3742 270.019 93.3742 258.312 93.3742C246.364 93.3742 234.553 93.3742 222.846 93.3742C210.932 93.3742 199.088 93.3742 187.381 93.3742C175.536 93.3742 163.622 93.3742 151.915 93.3742C140.105 93.3742 128.156 93.3742 116.449 93.3742C104.708 93.3742 93.0351 93.3742 80.9837 93.3742C69.2766 93.3742 57.5695 93.3742 45.5181 93.3742C33.8454 93.3742 22.1039 93.3742 10.3968 93.3742C-1.5513 93.3742 -13.3617 93.3742 -25.0688 93.3742C-36.9825 93.3742 -48.8273 93.3742 -60.5344 93.3742C-72.3792 93.3742 -84.2929 93.3742 -90.1465 93.3742H-96V55.6761Z" fill="url(#paint2_linear_72_223)"/>
<path d="M-96 55.6578L-90.0569 59.0938C-84.079 62.5943 -72.0189 69.3695 -60.2022 67.708C-48.3506 65.9819 -36.5686 55.6578 -24.4043 54.8028C-12.5876 53.8833 -0.7708 62.5943 11.3935 63.4009C23.1755 64.2075 35.027 57.4322 46.8438 53.9317C58.9039 50.4957 70.8249 50.4957 82.6416 48.7696C94.6669 47.1081 106.623 43.5592 118.439 41.8976C130.395 40.1716 142.421 40.1716 154.237 43.6076C166.158 47.1081 178.218 53.8833 190.035 53.9317C201.887 53.8833 213.669 47.1081 225.833 45.3336C237.65 43.5592 249.467 47.1081 261.631 48.7696C273.413 50.4957 285.264 50.4957 297.081 53.0767C309.141 55.6578 321.062 60.8198 332.879 62.5459C344.904 64.2075 356.86 62.5943 368.677 63.4009C380.633 64.2075 392.658 67.7564 398.566 69.4179L404.475 71.144" stroke="url(#paint3_linear_72_223)" stroke-width="3" stroke-linecap="round"/>
</g>
<defs>
<linearGradient id="paint0_linear_72_223" x1="-96" y1="0.00720215" x2="-68.9742" y2="161.469" gradientUnits="userSpaceOnUse">
<stop stop-color="#484F75"/>
<stop offset="1" stop-color="#393F5F"/>
</linearGradient>
<linearGradient id="paint1_linear_72_223" x1="-96" y1="0.00720215" x2="-68.9742" y2="161.469" gradientUnits="userSpaceOnUse">
<stop stop-color="#5F6791"/>
<stop offset="1" stop-color="#272C43"/>
</linearGradient>
<linearGradient id="paint2_linear_72_223" x1="153.831" y1="40.7627" x2="153.831" y2="93.3742" gradientUnits="userSpaceOnUse">
<stop stop-color="#88FFBF"/>
<stop offset="1" stop-color="#3EFE97" stop-opacity="0"/>
</linearGradient>
<linearGradient id="paint3_linear_72_223" x1="120.679" y1="40.6586" x2="122.236" y2="72.0059" gradientUnits="userSpaceOnUse">
<stop stop-color="#C7C7FF"/>
<stop offset="0.0001" stop-color="#88FFBF"/>
<stop offset="1" stop-color="#5EB485"/>
</linearGradient>
</defs>
</svg>
