<svg width="274" height="88" viewBox="0 0 274 88" fill="none" xmlns="http://www.w3.org/2000/svg">
<mask id="mask0_72_204" style="mask-type:alpha" maskUnits="userSpaceOnUse" x="-126" y="0" width="496" height="88">
<g opacity="0.95">
<rect width="495.83" height="87.0216" rx="24" transform="matrix(-1 0 0 1 370 0.978394)" fill="url(#paint0_linear_72_204)"/>
<rect x="-0.5" y="0.5" width="494.83" height="86.0216" rx="23.5" transform="matrix(-1 0 0 1 369 0.978394)" stroke="url(#paint1_linear_72_204)" stroke-opacity="0.7"/>
</g>
</mask>
<g mask="url(#mask0_72_204)">
<path opacity="0.25" d="M370 59.3495L364.112 62.9567C358.19 66.6316 346.241 73.7445 334.534 72.0001C322.793 70.1881 311.12 59.3495 299.069 58.4519C287.362 57.4866 275.655 66.6316 263.603 67.4784C251.931 68.3252 240.189 61.2123 228.482 57.5374C216.534 53.9302 204.723 53.9302 193.016 52.1181C181.103 50.3737 169.258 46.648 157.551 44.9036C145.706 43.0916 133.792 43.0916 122.085 46.6988C110.275 50.3737 98.3266 57.4866 86.6195 57.5374C74.8779 57.4866 63.2053 50.3737 51.1539 48.5109C39.4468 46.648 27.7397 50.3737 15.6882 52.1181C4.01559 53.9302 -7.72593 53.9302 -19.433 56.6398C-31.3811 59.3495 -43.1915 64.7688 -54.8986 66.5808C-66.8123 68.3252 -78.6571 66.6316 -90.3642 67.4784C-102.209 68.3252 -114.123 72.051 -119.976 73.7953L-125.83 75.6074V98.8776H-119.942C-114.019 98.8776 -102.071 98.8776 -90.3642 98.8776C-78.6227 98.8776 -66.95 98.8776 -54.8986 98.8776C-43.1915 98.8776 -31.4844 98.8776 -19.433 98.8776C-7.76036 98.8776 3.98115 98.8776 15.6882 98.8776C27.6364 98.8776 39.4468 98.8776 51.1539 98.8776C63.0676 98.8776 74.9124 98.8776 86.6195 98.8776C98.4643 98.8776 110.378 98.8776 122.085 98.8776C133.895 98.8776 145.844 98.8776 157.551 98.8776C169.292 98.8776 180.965 98.8776 193.016 98.8776C204.723 98.8776 216.43 98.8776 228.482 98.8776C240.155 98.8776 251.896 98.8776 263.603 98.8776C275.551 98.8776 287.362 98.8776 299.069 98.8776C310.982 98.8776 322.827 98.8776 334.534 98.8776C346.379 98.8776 358.293 98.8776 364.146 98.8776H370V59.3495Z" fill="url(#paint2_linear_72_204)"/>
<path d="M370 59.3303L364.057 62.9331C358.079 66.6036 346.019 73.7077 334.202 71.9655C322.351 70.1556 310.569 59.3303 298.404 58.4338C286.588 57.4697 274.771 66.6036 262.606 67.4493C250.824 68.295 238.973 61.1909 227.156 57.5204C215.096 53.9176 203.175 53.9176 191.358 52.1078C179.333 50.3656 167.377 46.6444 155.561 44.9022C143.605 43.0923 131.579 43.0923 119.763 46.6951C107.842 50.3656 95.7816 57.4697 83.9648 57.5204C72.1133 57.4697 60.3313 50.3656 48.167 48.505C36.3502 46.6444 24.5335 50.3656 12.3692 52.1078C0.587158 53.9176 -11.2644 53.9176 -23.0811 56.624C-35.1412 59.3303 -47.0622 64.743 -58.879 66.5528C-70.9042 68.295 -82.86 66.6036 -94.6768 67.4493C-106.633 68.295 -118.658 72.0162 -124.566 73.7584L-130.475 75.5683" stroke="url(#paint3_linear_72_204)" stroke-width="3" stroke-linecap="round"/>
</g>
<defs>
<linearGradient id="paint0_linear_72_204" x1="0" y1="0" x2="29.633" y2="168.842" gradientUnits="userSpaceOnUse">
<stop stop-color="#484F75"/>
<stop offset="1" stop-color="#393F5F"/>
</linearGradient>
<linearGradient id="paint1_linear_72_204" x1="0" y1="0" x2="29.633" y2="168.842" gradientUnits="userSpaceOnUse">
<stop stop-color="#5F6791"/>
<stop offset="1" stop-color="#272C43"/>
</linearGradient>
<linearGradient id="paint2_linear_72_204" x1="120.169" y1="43.7122" x2="120.169" y2="98.8776" gradientUnits="userSpaceOnUse">
<stop stop-color="#ED58BA"/>
<stop offset="1" stop-color="white" stop-opacity="0"/>
</linearGradient>
<linearGradient id="paint3_linear_72_204" x1="153.321" y1="43.603" x2="151.61" y2="76.464" gradientUnits="userSpaceOnUse">
<stop stop-color="#C7C7FF"/>
<stop offset="0.0001" stop-color="#FF95DB"/>
<stop offset="1" stop-color="#ED58BA"/>
</linearGradient>
</defs>
</svg>
