<svg width="49" height="49" viewBox="0 0 49 49" fill="none" xmlns="http://www.w3.org/2000/svg">
<g clip-path="url(#clip0_195_848)">
<path fill-rule="evenodd" clip-rule="evenodd" d="M47.7977 24.4273C47.1002 23.6882 46.65 22.7512 46.5092 21.7459C46.3683 20.7405 46.5439 19.7163 47.0115 18.8148C47.3528 18.1591 47.5412 17.435 47.5624 16.6965C47.5837 15.958 47.4374 15.2243 47.1344 14.5502C46.8338 13.8832 46.3823 13.2949 45.8153 12.8314C45.2483 12.3678 44.5814 12.0418 43.8668 11.8787C42.8736 11.6508 41.9797 11.1113 41.3165 10.3393C40.6532 9.5674 40.2554 8.60369 40.1815 7.58966C40.1155 6.8562 39.8846 6.14702 39.506 5.5148C39.1275 4.88258 38.611 4.34358 37.995 3.93782C37.3793 3.53957 36.6789 3.2901 35.9496 3.20926C35.2203 3.12842 34.4821 3.21844 33.7938 3.47215C32.8405 3.81832 31.8011 3.85039 30.8283 3.56365C29.8554 3.2769 29.0004 2.68646 28.3888 1.87907C27.9467 1.29531 27.375 0.821794 26.7185 0.495745C26.062 0.169695 25.3386 0 24.6052 0C23.8719 0 23.1485 0.169695 22.492 0.495745C21.8355 0.821794 21.2638 1.29531 20.8217 1.87907C20.2101 2.68646 19.3551 3.2769 18.3822 3.56365C17.4093 3.85039 16.3699 3.81832 15.4167 3.47215C14.7284 3.21844 13.9902 3.12842 13.2609 3.20926C12.5316 3.2901 11.8312 3.53957 11.2155 3.93782C10.6086 4.33595 10.0977 4.86337 9.71957 5.48212C9.34148 6.10086 9.10561 6.79553 9.02893 7.51613C8.95506 8.53016 8.5573 9.49387 7.89403 10.2658C7.23076 11.0378 6.33692 11.5773 5.34369 11.8052C4.6291 11.9682 3.96213 12.2943 3.39517 12.7578C2.82821 13.2214 2.3767 13.8097 2.0761 14.4767C1.7541 15.1416 1.58685 15.8705 1.58685 16.609C1.58685 17.3474 1.7541 18.0763 2.0761 18.7412C2.57667 19.6388 2.78194 20.6706 2.66291 21.6909C2.54388 22.7112 2.10658 23.6684 1.41276 24.4273C0.894346 24.935 0.500462 25.5552 0.261816 26.2396C0.0231692 26.9241 -0.0537909 27.6543 0.0369346 28.3733C0.168093 29.0871 0.456522 29.7631 0.881393 30.3522C1.30627 30.9413 1.85698 31.429 2.49377 31.78C3.39463 32.2767 4.1164 33.043 4.55722 33.9709C4.99803 34.8988 5.13563 35.9413 4.9506 36.9514C4.79884 37.6649 4.81364 38.4036 4.99385 39.1104C5.17406 39.8172 5.51485 40.4732 5.98986 41.0276C6.46487 41.582 7.06136 42.02 7.73319 42.3077C8.40502 42.5953 9.13418 42.7249 9.86426 42.6865C10.8766 42.6732 11.8683 42.9721 12.7039 43.5424C13.5394 44.1127 14.178 44.9266 14.5322 45.8727C14.7914 46.5554 15.2056 47.1691 15.7422 47.6655C16.2788 48.162 16.9233 48.5278 17.6253 48.7343C18.3272 48.9408 19.0676 48.9825 19.7884 48.8559C20.5091 48.7294 21.1908 48.4381 21.7799 48.005C22.6073 47.4249 23.5939 47.1136 24.6052 47.1136C25.6165 47.1136 26.6032 47.4249 27.4306 48.005C28.0217 48.4631 28.7131 48.7752 29.4484 48.9156C30.1836 49.056 30.9417 49.0208 31.6606 48.8128C32.3796 48.6048 33.0389 48.23 33.5848 47.719C34.1306 47.2079 34.5474 46.5752 34.8011 45.8727C35.1636 44.9645 35.7901 44.1852 36.6 43.6349C37.41 43.0846 38.3663 42.7885 39.3462 42.7845C40.0763 42.823 40.8055 42.6934 41.4773 42.4057C42.1491 42.1181 42.7456 41.6801 43.2206 41.1257C43.6956 40.5712 44.0364 39.9152 44.2166 39.2084C44.3968 38.5016 44.4116 37.7629 44.2599 37.0494C44.0525 36.0246 44.1791 34.9604 44.6211 34.0123C45.0631 33.0643 45.7974 32.2821 46.7167 31.78C47.3141 31.4023 47.8227 30.9004 48.2078 30.3086C48.5929 29.7169 48.8453 29.0491 48.948 28.351C49.0506 27.653 49.001 26.941 48.8024 26.2638C48.6039 25.5867 48.2612 24.9602 47.7977 24.4273Z" fill="url(#paint0_linear_195_848)"/>
<path fill-rule="evenodd" clip-rule="evenodd" d="M20.776 33.124L22.0255 34.3L23.275 33.0995L36.75 19.894L34.2265 17.15L22.0255 29.1305L14.7245 22.3685L12.25 25.1615L20.776 33.124Z" fill="white"/>
</g>
<defs>
<linearGradient id="paint0_linear_195_848" x1="3.98494" y1="3.81111" x2="49.5272" y2="6.34678" gradientUnits="userSpaceOnUse">
<stop stop-color="#3B5998"/>
<stop offset="1" stop-color="#6BF3AA"/>
<stop offset="1" stop-color="#3EFE97"/>
</linearGradient>
<clipPath id="clip0_195_848">
<rect width="49" height="49" fill="white"/>
</clipPath>
</defs>
</svg>
