<svg width="200" height="29" viewBox="0 0 200 29" fill="none" xmlns="http://www.w3.org/2000/svg">
<g clip-path="url(#clip0_473_254)">
<path d="M98.1415 14.82L97.3519 15.9955C96.1556 15.1441 94.7223 14.6895 93.254 14.6955C89.9178 14.7362 86.5943 17.0466 86.4749 21.0735C86.5232 24.5899 89.344 27.3701 93.254 27.4514C94.7223 27.4574 96.1556 27.0028 97.3519 26.1514L98.1415 27.3219C96.7112 28.3289 95.0033 28.8665 93.254 28.8605C88.3309 28.8554 85.0557 25.3262 85.0557 21.0735C85.0557 16.8207 88.3309 13.2788 93.254 13.2788C95.0037 13.2725 96.7119 13.8111 98.1415 14.82Z" fill="#96A3BC"/>
<path d="M108.752 13.6241L114.17 28.4949H112.677L111.207 24.4554H104.565L103.082 28.4949H101.589L107.018 13.6241H108.752ZM105.075 23.0539H110.699L107.886 15.343L105.075 23.0539Z" fill="#96A3BC"/>
<path d="M119.664 13.6241L125.25 21.7311L130.836 13.6241H132.613V28.4949H131.209V15.5461L125.248 24.2091L119.281 15.5461V28.4949H117.874V13.6241H119.664Z" fill="#96A3BC"/>
<path d="M141.545 13.6241C144.673 13.6241 147.222 15.9092 147.222 19.0398C147.222 22.1703 144.683 24.4554 141.545 24.4554H138.387V28.4949H136.98V13.6241H141.545ZM138.387 23.0488H141.545C143.909 23.0488 145.818 21.4086 145.818 19.0398C145.818 16.6709 143.909 15.0307 141.545 15.0307H138.387V23.0488Z" fill="#96A3BC"/>
<path d="M155.969 13.6241L161.387 28.4949H159.894L158.432 24.4554H151.782L150.307 28.4949H148.817L154.235 13.6241H155.969ZM152.293 23.0539H157.924L155.103 15.343L152.293 23.0539Z" fill="#96A3BC"/>
<path d="M166.498 13.6241V28.4949H165.092V13.6241H166.498Z" fill="#96A3BC"/>
<path d="M183.905 15.2922L182.991 16.3408C181.715 15.2441 180.081 14.6533 178.398 14.6803C174.516 14.6803 171.614 17.1635 171.614 21.0608C171.614 24.5722 174.623 27.4438 178.398 27.4438C179.691 27.4438 181.605 27.0629 182.633 26.1387L182.588 21.4442H179.442V19.9741H183.987L184.05 26.6973C182.915 27.9312 180.922 28.863 178.398 28.863C173.899 28.863 170.203 25.3872 170.203 21.0684C170.203 16.808 173.465 13.2763 178.391 13.2763C180.415 13.2434 182.38 13.9616 183.905 15.2922Z" fill="#96A3BC"/>
<path d="M189.192 13.6241L198.586 26.121V13.6241H199.992V28.4949H198.573L189.179 15.9448V28.4949H187.772V13.6241H189.192Z" fill="#96A3BC"/>
<path d="M14.7895 7.03293L15.9955 4.95097L20.3117 12.4003L20.3651 12.4917L21.4365 14.3553L22.4927 12.507L24.8997 8.28718L26.517 9.49319L26.6084 4.06233L24.3741 5.17947L24.8514 5.47653L23.1046 8.12468L22.8761 8.10691L21.4264 10.6459L20.4996 9.05395L16.3205 1.87881L15.9371 1.22375L15.9193 1.26946L14.0481 4.57012C14.4543 5.37498 14.7895 6.01734 14.7895 6.01734V7.03293Z" fill="#A1AECE"/>
<path d="M42.3297 26.4764L42.1952 26.6643L36.8303 17.6027C36.8303 17.6027 33.1539 11.2553 30.6657 6.93902L30.2925 6.29412L23.7724 17.5976C23.7724 17.6129 23.7521 17.6281 23.7444 17.6459L23.1656 18.6615L21.4873 21.5813L21.2588 21.1903L17.1177 14.1218L16.7013 13.4566L12.281 21.17L12.2505 21.2182L8.83306 27.1822L3.24732 27.2026L10.4098 14.6981C10.4181 14.6807 10.4274 14.6637 10.4377 14.6473L16.3814 4.26802V3.2245C16.3814 3.2245 16.0437 2.58468 15.6375 1.77728L8.8356 13.7308L8.80767 13.779L0.655029 27.9287H10.5215L13.8526 22.1373C13.8629 22.1209 13.8722 22.104 13.8805 22.0865L16.742 17.0898L19.6643 22.1145L21.1039 24.6534L21.4873 25.3263L25.344 18.5726C25.3543 18.5562 25.3636 18.5393 25.3719 18.5218L30.262 9.97817L35.2384 18.5345L40.1386 26.9588L42.5405 26.7227L42.3297 26.4764Z" fill="#A1AECE"/>
<path d="M53.9938 13.6038L59.4119 28.4847H56.1976L55.0347 25.2907H49.7334L48.5705 28.4847H45.3536L50.7794 13.6038H53.9938ZM50.8404 22.2541H53.9277L52.3841 18.0267L50.8404 22.2541Z" fill="#3B5998"/>
<path d="M65.1932 13.6038V28.4847H62.1465V13.6038H65.1932Z" fill="#3B5998"/>
<path d="M43.452 27.8322V27.8703L43.3276 28.4949C39.4938 28.4949 34.718 28.4187 33.3977 28.3959L29.4877 22.0155L28.043 24.5392L27.487 25.5091L29.6654 25.5751L30.1529 25.7274L24.1457 28.0938L23.7344 27.9059L25.9687 24.4884C26.6517 23.2799 28.7463 19.6314 29.4166 18.4685C29.4318 18.4939 29.4471 18.5193 29.4648 18.5447L29.7441 18.9941L31.6331 22.0408C32.6487 23.6912 33.6389 25.3542 34.6037 27.0299L40.6211 27.0096L40.55 26.8852L42.5202 26.6491L43.2185 27.4616L43.452 27.8322Z" fill="#A1AECE"/>
<path d="M43.4495 27.8297H43.4164C39.5902 27.8297 34.8931 27.751 33.5754 27.7307L29.5486 20.9897L27.5479 24.4833L27.5834 24.5011L29.6679 25.5802L29.5536 25.6233L23.7343 27.9084L24.1634 23.2392L24.2904 21.8936L26.0372 23.4652C26.7176 22.2541 27.3473 21.1395 27.4641 20.9262C27.6723 20.5682 28.8148 18.6005 29.4953 17.4351C29.513 17.4605 29.5283 17.4884 29.546 17.5164L29.8253 17.9632C30.6479 19.2835 31.5036 20.6647 31.7169 21.01C32.7324 22.6603 33.7226 24.3234 34.6875 25.9991L40.2097 25.9813L35.2283 17.4224L30.2519 8.86863L25.3618 17.4047C25.3535 17.4229 25.3442 17.4407 25.3339 17.458L21.5 24.1736L21.4772 24.2117L21.0938 23.5363L19.6542 20.9973L16.7318 15.9955L13.8704 20.977C13.8626 20.9947 13.8533 21.0117 13.8425 21.0278L9.87407 27.9287L0.104098 27.9439H0L0.363073 27.3117L7.19545 15.3202L7.22338 15.2719L15.8965 0.0330067L15.9168 0L16.2977 0.652516L20.4768 7.82765L21.4035 9.42213L23.0463 6.55309L20.8627 5.62637L26.6745 2.83349L26.5297 8.85086L24.6585 7.45189L22.4725 11.2832L21.4162 13.1316L20.3473 11.268L20.294 11.1715L15.96 3.72721L8.82039 16.1885L8.795 16.2393L3.23211 26.093L8.81785 26.0753L12.2429 20.1112C12.2519 20.0944 12.2621 20.0783 12.2734 20.063L16.6887 12.3496L17.1051 13.0249L21.2487 20.0833L21.4772 20.4768L23.1554 17.5443L23.7343 16.5287L23.7648 16.5033L30.2823 5.20236C30.4017 5.41055 30.5362 5.62637 30.6556 5.84726L36.8151 16.5033L43.1981 27.4209L43.4215 27.8068L43.4495 27.8297Z" fill="#3B5998"/>
<path d="M81.5035 13.6038V28.4822H78.7919L71.9418 19.4663V28.6117H68.9052V13.6038H71.6193L78.4695 22.6223V13.6038H81.5035Z" fill="#3B5998"/>
</g>
<defs>
<clipPath id="clip0_473_254">
<rect width="200" height="28.8554" fill="white"/>
</clipPath>
</defs>
</svg>
