<svg width="110" height="109" viewBox="0 0 110 109" fill="none" xmlns="http://www.w3.org/2000/svg">
<mask id="mask0_819_228" style="mask-type:alpha" maskUnits="userSpaceOnUse" x="18" y="3" width="78" height="97">
<path d="M70.6112 3.71599L41.4961 51.2079L18.8383 81.6664L54.9618 99.5728L49.8785 74.6646L52.174 64.2997L61.6036 53.2943L77.4954 51.9784L95.0089 39.175L92.7621 32.8877L70.6112 3.71599Z" fill="#D9D9D9"/>
</mask>
<g mask="url(#mask0_819_228)">
<path d="M-81.9046 -16.6884L-12.5916 -3.81407C-12.5916 -3.81407 56.7213 9.0603 56.7199 9.0717C57.6659 9.24632 58.5749 9.66868 59.3593 10.3374C61.7276 12.3708 61.9992 15.9389 59.964 18.3023L14.3958 71.6139C14.3247 71.7048 14.2583 71.794 14.1806 71.8817L-3.91514 93.0525L-1.17504 93.5622L43.4558 101.851C44.4326 102.02 45.3741 102.442 46.1768 103.131C48.5451 105.164 48.8166 108.733 46.7832 111.101L17.4835 145.378C17.4124 145.469 17.3461 145.558 17.2684 145.646L-10.1391 177.709L1.29619 210.045L58.7387 142.847C58.8147 142.754 58.8973 142.665 58.9816 142.58L116.223 75.6126L52.6232 63.7998L37.1771 81.8694C35.1471 84.2474 31.5728 84.532 29.1966 82.5069C26.8186 80.477 26.5357 76.9075 28.559 74.5264L64.2815 32.7343L62.7479 33.0369C61.4442 33.2956 60.1931 32.9846 59.3134 32.1863C58.8776 31.7912 58.5518 31.2913 58.3544 30.7238C58.1504 30.1531 58.0798 29.5129 58.1467 28.8454C58.2674 27.6569 58.8265 26.459 59.7153 25.4815C60.604 24.5039 61.7398 23.8363 62.9175 23.6063L78.78 20.4684C80.0838 20.2097 81.3349 20.5208 82.2146 21.319C83.0895 22.119 83.5185 23.3346 83.3795 24.6551L81.7381 40.742C81.4888 43.2036 79.3922 45.5019 76.9673 45.9812C75.6635 46.2398 74.4125 45.9288 73.5327 45.1305C72.653 44.3323 72.2288 43.1149 72.363 41.7962L72.4888 40.5458L61.0884 53.8809L127.819 66.2761C128.791 66.447 129.733 66.8686 130.54 67.5563C132.907 69.5849 133.179 73.153 131.147 75.5261L67.5557 149.922C67.4894 150.012 67.4183 150.102 67.3406 150.19L3.76846 224.563C3.11809 225.445 2.20718 226.147 1.09792 226.538C-1.85576 227.582 -5.09736 226.035 -6.14196 223.082L-21.939 178.419C-22.6894 176.304 -22.1046 174.033 -20.6259 172.539L8.63894 138.302C8.71492 138.209 8.79748 138.119 8.88176 138.035L31.8315 111.186L-3.22542 104.674L-15.2655 102.437C-16.3355 102.312 -17.3814 101.873 -18.2601 101.124C-20.6381 99.094 -20.921 95.5245 -18.8976 93.1434L5.55601 64.5357C5.632 64.4431 5.71455 64.3536 5.79883 64.2689L45.0092 18.3943L-14.6825 7.3067L-74.3285 -3.77537L-62.0231 31.0254C-50.3471 33.1741 -38.6895 35.4549 -27.0673 37.8956C-22.4736 38.861 -17.8924 39.8527 -13.3256 40.926C-8.67727 42.0137 -1.67322 42.5813 0.59481 45.9214C3.52048 50.2317 -0.131653 53.6257 -2.57197 56.3358C-4.84579 58.8555 -6.98177 61.5168 -9.18267 64.1031C-11.2917 66.5803 -13.4039 69.064 -15.5129 71.5412C-15.9802 72.0954 -17.5005 74.6022 -18.243 74.753L-16.5008 74.4085C-15.197 74.1499 -13.9459 74.4609 -13.0662 75.2592C-12.6305 75.6543 -12.3046 76.1541 -12.1072 76.7217C-11.9032 77.2924 -11.8326 77.9326 -11.9013 78.5953C-12.022 79.7837 -12.5762 80.9799 -13.4698 81.9591C-14.3586 82.9367 -15.4944 83.6044 -16.6721 83.8343L-32.5346 86.9722C-33.8384 87.2309 -35.0895 86.9199 -35.9692 86.1216C-36.8441 85.3217 -37.2731 84.106 -37.1341 82.7855L-35.4927 66.6986C-35.2433 64.237 -33.1467 61.9388 -30.7219 61.4595C-29.4181 61.2008 -28.167 61.5119 -27.2873 62.3101C-26.4075 63.1083 -25.9834 64.3257 -26.1175 65.6445L-26.2279 66.7093L-13.7356 52.0951L-67.0354 41.5867C-69.08 41.3138 -70.9047 39.9315 -71.6431 37.8501C-71.6431 37.8501 -88.2963 -9.23929 -88.2866 -9.24275C-88.6116 -10.152 -88.7029 -11.1556 -88.5152 -12.1717C-87.9361 -15.2366 -84.9791 -17.2641 -81.9046 -16.6884Z" fill="#3B5998"/>
</g>
</svg>
