<svg width="69" height="51" viewBox="0 0 69 51" fill="none" xmlns="http://www.w3.org/2000/svg">
<path fill-rule="evenodd" clip-rule="evenodd" d="M34.7809 4.49121C26.0071 4.49121 18.894 11.5991 18.894 20.3674C18.894 27.5599 23.6835 33.6276 30.2458 35.5792C30.1551 34.1442 29.9894 30.3312 30.5871 27.7029C31.3358 24.4094 32.9835 19.5445 32.9835 19.5445L29.9134 21.3405L30.0627 19.0953L27.2918 19.8438C27.2918 19.8438 28.64 16.5505 30.3624 15.9517C30.3624 15.9517 27.5168 15.2032 26.2434 15.877C26.2434 15.877 28.1158 12.9583 31.4108 13.407L30.9618 11.4608L32.4598 11.5362L33.6579 12.3597L33.9572 10.3388L35.9793 12.7337C35.9793 12.7337 36.6535 11.6861 40.1738 11.7606C38.9751 12.9585 39.0501 13.1826 39.0501 13.1826L42.1957 13.6318L40.0241 15.1285C40.0241 15.1285 43.0199 16.4007 44.1431 19.2454C40.4735 18.4967 40.9225 18.9459 40.9225 18.9459C40.9225 18.9459 41.372 19.2454 41.297 20.5928C39.5739 19.5447 39.1999 20.0684 39.1999 20.0684L39.7243 23.4366L39.5001 23.7356C39.5001 23.7356 37.777 20.4429 35.5303 19.6941C34.9982 20.366 34.7595 20.6299 34.669 20.6962C34.219 22.048 32.5896 27.3982 33.4332 31.7436C35.6803 28.9006 35.9796 28.6755 35.9796 28.6755L35.4556 32.0442L37.2532 31.4448C37.2532 31.4448 36.953 31.8186 36.8787 32.7177C36.8133 33.5006 36.7482 35.5893 36.7322 36.1137C44.5842 35.1504 50.6688 28.475 50.6688 20.3677C50.668 11.5991 43.5552 4.49121 34.7809 4.49121ZM17.113 37.058V45.3661H16.2168V37.058H17.113ZM20.1325 42.7299C20.1325 43.2147 20.278 43.6533 20.5696 44.0455C20.861 44.4377 21.3361 44.6335 21.9938 44.6335C22.4723 44.6335 22.8249 44.5424 23.0535 44.3591C23.2815 44.1767 23.4364 43.9733 23.519 43.7497C23.5559 43.6379 23.5819 43.528 23.5972 43.4199C23.6112 43.3253 23.6187 43.2299 23.6198 43.1344C23.6198 42.7395 23.5276 42.4451 23.3447 42.2512C23.1612 42.0573 22.9576 41.9114 22.7337 41.8146C22.6601 41.7851 22.5852 41.7592 22.5092 41.7369C22.4346 41.714 22.3598 41.6916 22.2849 41.6698C22.2252 41.6548 22.1657 41.6396 22.1054 41.6251L21.9264 41.5799C21.9056 41.5732 21.885 41.5658 21.8647 41.5578C21.8413 41.5496 21.8167 41.5457 21.7919 41.5462C21.2013 41.3976 20.6633 41.1867 20.1772 40.9137C19.6916 40.6424 19.4487 40.0699 19.4487 39.1976C19.4487 38.6014 19.6294 38.0539 19.9926 37.5546C20.3545 37.056 21.0066 36.8059 21.9483 36.8059C22.7479 36.8059 23.3287 37.0275 23.6911 37.4711C24.0535 37.9141 24.2687 38.4041 24.3361 38.9403C24.3432 38.9855 24.3486 39.0319 24.3528 39.0803C24.3562 39.1283 24.3579 39.1749 24.3579 39.2194H23.5065C23.4991 39.1528 23.4912 39.0855 23.4841 39.0194C23.4756 38.9474 23.4606 38.8762 23.4393 38.8068C23.3643 38.5461 23.2151 38.3048 22.9906 38.0817C22.7666 37.8581 22.4115 37.7463 21.9257 37.7463C21.4101 37.7463 21.0194 37.8827 20.7543 38.1542C20.489 38.4255 20.3562 38.7545 20.3562 39.1415C20.3562 39.619 20.5128 39.9397 20.8271 40.1038C21.1411 40.2679 21.488 40.3947 21.8694 40.4839C21.8768 40.4916 21.8841 40.4955 21.892 40.4955H21.9144C21.9321 40.5036 21.9509 40.5092 21.9702 40.5122C21.9897 40.5148 22.0087 40.5204 22.0265 40.5289C22.1605 40.5586 22.2994 40.5923 22.4415 40.6297C22.5832 40.6665 22.7248 40.7078 22.8674 40.7525C23.2935 40.8936 23.684 41.1307 24.0388 41.4634C24.3943 41.7951 24.5711 42.3451 24.5711 43.113C24.5711 43.2469 24.5603 43.4005 24.5374 43.5718C24.5136 43.7505 24.4723 43.9266 24.4143 44.0974C24.2874 44.4704 24.0405 44.8078 23.6744 45.11C23.3083 45.412 22.7327 45.5626 21.9481 45.5626C21.8059 45.5626 21.6264 45.5521 21.4098 45.529C21.179 45.5035 20.9526 45.4472 20.7368 45.3614C20.3707 45.2275 20.0344 44.964 19.7277 44.5719C19.4211 44.1802 19.2529 43.5663 19.2237 42.7304H20.1325V42.7299ZM30.9461 45.3661H26.699V37.058H27.5952V44.4254H30.9461V45.3661ZM33.5775 42.2778L34.7317 38.1901L35.8856 42.2778H33.5775ZM33.3309 43.2189H36.1327L36.7605 45.3661H37.7128L35.2139 37.058H34.2611L31.7624 45.3661H32.7037L33.3309 43.2189ZM40.2704 45.3661H39.3742V37.058H40.3577L43.8679 43.6428V37.058H44.7529V45.3661H43.7799L40.2704 38.7842V45.3661ZM48.1588 37.9982H49.6351C49.7244 37.9982 49.8139 38.0021 49.9031 38.0097C49.9929 38.0168 50.0826 38.0323 50.1716 38.0544C50.5967 38.1591 50.9879 38.4375 51.3457 38.8887C51.7035 39.3403 51.8827 40.1149 51.8827 41.212C51.8827 42.2271 51.6944 43.0167 51.3174 43.5801C50.9415 44.1436 50.2982 44.4257 49.3887 44.4257H48.1588V37.9982ZM47.2626 37.058V45.3663H49.355C49.5495 45.3663 49.7691 45.3562 50.015 45.338C50.2701 45.3175 50.5219 45.267 50.7652 45.1874C51.2872 45.0157 51.7607 44.6446 52.1861 44.073C52.6115 43.502 52.8239 42.5417 52.8239 41.1907V40.9943C52.8239 40.9304 52.82 40.8695 52.8129 40.809C52.775 39.8689 52.5382 39.0088 52.102 38.2284C51.6651 37.4485 50.8616 37.0583 49.6907 37.0583H47.2626V37.058ZM46.807 33.2559V33.1057H47.8534V33.2559H47.4197V34.4385H47.24V33.2559H46.807ZM48.3961 33.3197H48.3927L48.3961 33.3696V34.4385H48.2164V33.1057H48.4839L48.9011 34.2029L49.3182 33.1057H49.5859V34.4385H49.4059V33.3696L49.4116 33.3197H49.4059L48.9727 34.4385H48.8296L48.3961 33.3197Z" fill="#3B5998"/>
</svg>
