<svg width="156" height="52" viewBox="0 0 156 52" fill="none" xmlns="http://www.w3.org/2000/svg">
<path d="M22.2499 21.7562C22.2777 31.8284 22.2777 31.9678 22.4814 32.8784C23.3333 36.781 25.1022 38.9832 27.9729 39.7265C28.6767 39.9123 29.0564 39.9309 31.927 39.9681L35.094 40.0052V39.7915C35.0848 39.6708 34.9088 38.3885 34.6958 36.9296L34.2976 34.2815L31.288 34.2258C28.0747 34.1701 27.8525 34.1421 27.0097 33.6403C26.0837 33.1013 25.1576 31.7633 24.7779 30.4255C24.3797 29.0129 24.3521 28.4556 24.3521 19.8049V11.563H22.2126L22.2499 21.7562Z" fill="#3B5998"/>
<path d="M24.8324 20.2694L24.8602 28.9851L25.1103 29.8957C25.2493 30.3975 25.4714 31.0479 25.601 31.336C25.8511 31.875 26.5179 32.8414 26.6566 32.8414C26.6939 32.8414 26.7864 32.4788 26.8513 32.0236C26.9531 31.3917 26.9901 29.1246 27.0086 21.3845L27.0456 11.563H24.8047L24.8324 20.2694Z" fill="#3B5998"/>
<path d="M44.7711 18.8945C41.3727 19.2291 38.6686 20.7621 37.2702 23.1503C36.4739 24.5159 36.1591 25.9191 36.2332 27.7681C36.3164 29.9425 36.9091 31.4292 38.2796 32.8973C40.5391 35.3504 44.6045 36.4189 48.5495 35.6199C51.7258 34.9786 54.2261 33.0367 55.2724 30.4072C56.041 28.4837 56.004 25.8449 55.1798 23.9679C53.8556 20.9295 50.6515 19.0431 46.5307 18.8667C45.975 18.8482 45.1787 18.8574 44.7711 18.8945ZM47.2251 22.6299C49.5959 23.1781 51.2256 25.6312 50.8553 28.0749C50.5682 29.9611 49.2347 31.4943 47.4105 32.0425C46.7344 32.2468 45.3083 32.2468 44.6322 32.0425C42.5023 31.4106 41.1133 29.5522 41.1133 27.3316C41.1133 25.2129 42.6228 23.2152 44.6415 22.6763C45.2249 22.5183 46.6324 22.4905 47.2251 22.6299ZM57.6895 27.127V35.2575L60.2176 35.2389L62.7362 35.211L62.7641 27.0993L62.7826 18.9968H57.6895V27.127ZM65.8293 22.9086C64.3847 25.0551 63.2085 26.8576 63.2272 26.9039C63.2364 26.9505 64.4866 28.846 65.996 31.1226L68.737 35.2575H71.7837C73.4507 35.2575 74.8212 35.2389 74.8212 35.211C74.8212 35.1924 73.4507 33.3805 71.7837 31.1969C70.1078 29.0134 68.6815 27.127 68.6168 27.025C68.5055 26.8392 68.6908 26.5509 71.2651 23.0386C72.7839 20.9481 74.0711 19.192 74.1081 19.1176C74.173 19.0154 73.6914 18.9968 71.3208 18.9968H68.4593L65.8293 22.9086ZM76.2286 24.7299C76.2658 30.2584 76.275 30.5001 76.4603 31.1877C77.1733 33.7335 78.8494 35.0809 81.9516 35.5919C83.1555 35.7963 85.2577 35.852 86.5725 35.7313C90.3045 35.3598 92.3326 33.9938 93.129 31.2991C93.2771 30.8067 93.2956 30.1563 93.3235 24.8691L93.3511 18.9968H87.9709V30.0354L87.6653 30.6207C87.119 31.6895 86.1282 32.2376 84.7761 32.2283C83.4426 32.2097 82.3221 31.5501 81.8499 30.5001L81.6275 30.0075L81.609 24.5253L81.5813 19.0431L78.8956 19.0154L76.2009 18.9968L76.2286 24.7299ZM96.1201 27.127V35.2575H100.195L100.204 29.515C100.213 25.6032 100.241 23.8563 100.306 24.0143C100.361 24.1445 101.158 26.7091 102.084 29.7288L103.76 35.211L105.955 35.2389L108.14 35.2575L108.242 34.9601C108.381 34.4954 109.603 30.5464 110.659 27.127C111.187 25.4358 111.641 23.9957 111.687 23.9214C111.733 23.8471 111.77 26.3653 111.77 29.515V35.2575H115.845V18.9966L112.261 19.0154L108.668 19.0431L107.334 23.7634C106.603 26.3559 105.982 28.4651 105.964 28.4465C105.936 28.4093 103.251 19.0991 103.251 19.0246C103.251 19.006 101.649 18.9968 99.6854 18.9968H96.1201V27.127ZM124.67 19.1083C124.568 19.2569 117.141 35.1087 117.141 35.1924C117.141 35.2295 118.364 35.2575 119.864 35.2575H122.586L123.466 33.0089C123.957 31.7638 124.401 30.6393 124.448 30.4907L124.55 30.2398L127.855 30.2584L131.152 30.2863L131.606 31.4478C131.856 32.0888 132.291 33.2041 132.578 33.9381L133.097 35.2575H135.81C137.31 35.2575 138.533 35.2295 138.533 35.2018C138.533 35.1644 138.097 34.2167 137.56 33.0831C137.033 31.9588 135.329 28.335 133.773 25.0365L130.958 19.0431L127.855 19.0154C125.448 18.9968 124.744 19.0246 124.67 19.1083ZM128.893 24.4418C129.402 25.7704 129.828 26.8855 129.828 26.9227C129.828 26.9598 128.93 26.9878 127.828 26.9878C126.726 26.9878 125.846 26.9505 125.865 26.9041C126.781 24.4975 127.846 21.9052 127.893 21.9515C127.92 21.9887 128.374 23.1038 128.893 24.4418H128.893Z" fill="#3B5998"/>
<path d="M21.5275 33.7795C20.6847 34.179 20.194 34.2347 17.3697 34.2347H14.7582L14.3415 37.0408C14.11 38.5926 13.934 39.8841 13.9525 39.9214C13.9989 40.005 19.4532 39.9864 20.2774 39.8935C21.6479 39.7449 23.3426 38.9829 24.0555 38.2117L24.2686 37.9701L23.8889 37.4775C23.3888 36.8179 22.6573 35.3033 22.3981 34.3742C22.2868 33.9652 22.1666 33.6029 22.1387 33.5751C22.1108 33.5379 21.8333 33.6306 21.5275 33.7795Z" fill="#3B5998"/>
</svg>
