<svg width="109" height="109" viewBox="0 0 109 109" fill="none" xmlns="http://www.w3.org/2000/svg">
<mask id="mask0_819_423" style="mask-type:alpha" maskUnits="userSpaceOnUse" x="17" y="8" width="78" height="97">
<path d="M71.054 104.504L41.0898 57.543L17.888 27.4968L53.6837 8.94391L49.0491 33.9395L51.5305 44.2615L61.1564 55.0955L77.0694 56.1255L94.8102 68.6119L92.6768 74.9386L71.054 104.504Z" fill="#D9D9D9"/>
</mask>
<g mask="url(#mask0_819_423)">
<path d="M-81.0671 127.645L-11.9969 113.527C-11.9969 113.527 57.0734 99.4085 57.0718 99.3972C58.0145 99.2055 58.9158 98.7669 59.688 98.0842C62.0194 96.0086 62.2267 92.4362 60.1494 90.1097L13.6301 37.6259C13.5574 37.5364 13.4895 37.4484 13.4102 37.3621L-5.06328 16.5201L-2.33279 15.9611L42.1419 6.87148C43.1154 6.68484 44.0492 6.24633 44.8393 5.54259C47.1707 3.46694 47.378 -0.105462 45.3024 -2.43684L15.3912 -36.1818C15.3184 -36.2714 15.2505 -36.3594 15.1712 -36.4457L-12.8083 -68.0109L-1.95612 -100.547L56.6852 -34.3927C56.7629 -34.3015 56.8471 -34.2135 56.9328 -34.1304L115.369 31.7973L51.9919 44.7515L36.2233 26.9626C34.151 24.6215 30.5721 24.4011 28.2327 26.4686C25.8916 28.541 25.6729 32.115 27.7387 34.4593L64.2067 75.6024L62.668 75.3274C61.3598 75.0922 60.1145 75.4257 59.2493 76.2396C58.8207 76.6425 58.5039 77.1482 58.3167 77.7192C58.1231 78.2935 58.064 78.9348 58.1429 79.601C58.2849 80.7871 58.8655 81.9748 59.7716 82.9362C60.6778 83.8976 61.8255 84.5447 63.0071 84.7535L78.9235 87.6057C80.2317 87.8409 81.477 87.5074 82.3422 86.6935C83.2026 85.8779 83.6097 84.6547 83.447 83.337L81.5166 67.2821C81.223 64.8254 79.0854 62.5653 76.6524 62.1296C75.3441 61.8945 74.0989 62.2279 73.2336 63.0419C72.3684 63.8558 71.9662 65.0806 72.124 66.3967L72.2723 67.6446L60.634 54.5167L127.131 40.9237C128.1 40.7354 129.034 40.2969 129.829 39.5948C132.159 37.524 132.366 33.9516 130.292 31.6154L65.3736 -41.6256C65.3057 -41.7136 65.2329 -41.8032 65.1536 -41.8895L0.254725 -115.108C-0.411401 -115.977 -1.33476 -116.663 -2.45088 -117.034C-5.42286 -118.025 -8.63613 -116.42 -9.62747 -113.448L-24.6189 -68.5084C-25.3312 -66.38 -24.7057 -64.1203 -23.2003 -62.6533L6.67526 -28.9474C6.75289 -28.8562 6.83704 -28.7682 6.92283 -28.6851L30.3515 -2.25341L-4.58261 4.88802L-16.5806 7.34091C-17.6481 7.48498 -18.6859 7.94265 -19.551 8.70786C-21.8921 10.7802 -22.1108 14.3542 -20.045 16.6985L4.91903 44.862C4.99667 44.9532 5.08081 45.0412 5.1666 45.1244L45.1954 90.2866L-14.2873 102.446L-73.7244 114.598L-62.0467 79.5818C-50.4112 77.2235 -38.7965 74.7335 -27.2201 72.0843C-22.6445 71.0364 -18.0818 69.9625 -13.535 68.8074C-8.90704 67.6362 -1.91433 66.9427 0.293283 63.5625C3.14098 59.2002 -0.571583 55.8724 -3.06022 53.2066C-5.37898 50.7282 -7.56245 48.1058 -9.8095 45.5594C-11.9627 43.1206 -14.1192 40.6752 -16.2724 38.2364C-16.7497 37.6906 -18.3148 35.2116 -19.0598 35.0742L-17.3117 35.3873C-16.0034 35.6224 -14.7582 35.289 -13.8929 34.475C-13.4644 34.0721 -13.1475 33.5665 -12.9604 32.9955C-12.7667 32.4212 -12.7077 31.7798 -12.7882 31.1185C-12.9303 29.9324 -13.5059 28.7464 -14.417 27.7834C-15.3232 26.822 -16.4708 26.1748 -17.6524 25.9661L-33.5688 23.1139C-34.877 22.8787 -36.1223 23.2122 -36.9876 24.0261C-37.8479 24.8417 -38.255 26.0648 -38.0923 27.3826L-36.1619 43.4374C-35.8683 45.8942 -33.7307 48.1543 -31.2977 48.5899C-29.9894 48.8251 -28.7442 48.4916 -27.8789 47.6777C-27.0137 46.8637 -26.6115 45.6389 -26.7693 44.3228L-26.8988 43.2602L-14.1458 57.6474L-67.248 69.1124C-69.2874 69.422 -71.087 70.8368 -71.7878 72.9312C-71.7878 72.9312 -87.5918 120.312 -87.582 120.316C-87.8906 121.231 -87.9639 122.236 -87.7579 123.248C-87.1237 126.302 -84.1308 128.276 -81.0671 127.645Z" fill="#3B5998"/>
</g>
</svg>
