<svg width="42" height="43" viewBox="0 0 42 43" fill="none" xmlns="http://www.w3.org/2000/svg">
<path d="M0 21.0273C0 32.6253 9.40202 42.0273 21 42.0273C32.598 42.0273 42 32.6253 42 21.0273C42 9.42936 32.598 0.0273438 21 0.0273438C9.40202 0.0273438 0 9.42936 0 21.0273Z" fill="#D9D9D9"/>
<path d="M0 21.0273C0 32.6253 9.40202 42.0273 21 42.0273C32.598 42.0273 42 32.6253 42 21.0273C42 9.42936 32.598 0.0273438 21 0.0273438C9.40202 0.0273438 0 9.42936 0 21.0273Z" fill="#3B5998"/>
<g clip-path="url(#clip0_1002_103)">
<path d="M17.59 25.6173L22.17 21.0273L17.59 16.4373L19 15.0273L25 21.0273L19 27.0273L17.59 25.6173Z" fill="white"/>
</g>
<defs>
<clipPath id="clip0_1002_103">
<rect width="24" height="24" fill="white" transform="matrix(-1 0 0 1 33 9.02734)"/>
</clipPath>
</defs>
</svg>
